<svg xmlns="http://www.w3.org/2000/svg" width="20" height="20" viewBox="0 0 20 20">
    <path fill="#FFF" d="M10 6.667c-1.842 0-3.333 1.491-3.333 3.333S8.158 13.333 10 13.333s3.333-1.491 3.333-3.333S11.842 6.667 10 6.667zm7.45 2.5c-.383-3.475-3.142-6.234-6.617-6.617V.833H9.167V2.55c-3.475.383-6.234 3.142-6.617 6.617H.833v1.666H2.55c.383 3.475 3.142 6.234 6.617 6.617v1.717h1.666V17.45c3.475-.383 6.234-3.142 6.617-6.617h1.717V9.167H17.45zM10 15.833c-3.225 0-5.833-2.608-5.833-5.833S6.775 4.167 10 4.167 15.833 6.775 15.833 10 13.225 15.833 10 15.833z"/>
</svg>
