<svg xmlns="http://www.w3.org/2000/svg" width="24" height="24" viewBox="0 0 24 24">
    <path fill-rule="evenodd" d="M20 18c.552 0 1 .448 1 1 0 .513-.386.936-.883.993L20 20h-9c-.552 0-1-.448-1-1 0-.513.386-.936.883-.993L11 18h9zM14.793 1.793c.788-.789 1.938-1.097 3.015-.808 1.077.289 1.918 1.13 2.207 2.207.289 1.077-.02 2.227-.808 3.015l-12.5 12.5c-.128.128-.289.22-.464.263l-4 1c-.733.183-1.396-.48-1.213-1.213l1-4c.044-.175.135-.336.263-.464zM17.16 2.89c-.347-.05-.701.065-.953.317L3.903 15.511l-.529 2.114 2.114-.529L17.793 4.793c.252-.252.367-.606.317-.953l-.027-.13c-.104-.387-.406-.69-.793-.793z"/>
</svg>
