<svg xmlns="http://www.w3.org/2000/svg" width="24" height="24" viewBox="0 0 24 24">
    <g fill="none" fill-rule="evenodd">
        <path fill="#000" d="M10 0C4.477 0 0 4.477 0 10c0 3.372 1.802 6.676 4.774 9.813 1.019 1.075 2.108 2.055 3.197 2.922.382.304.737.573 1.057.804l.417.293c.336.224.774.224 1.11 0l.417-.293.506-.374c.176-.134.36-.278.551-.43 1.09-.867 2.178-1.847 3.197-2.922C18.198 16.676 20 13.372 20 10c0-5.523-4.477-10-10-10z" transform="translate(2)"/>
        <path fill="#00D06C" d="M10 2c4.418 0 8 3.582 8 8 0 2.753-1.573 5.636-4.226 8.437-.95 1.003-1.97 1.921-2.99 2.734l-.263.206-.521.395-.27-.201c-.163-.125-.335-.258-.513-.4-1.02-.813-2.041-1.731-2.991-2.734C3.573 15.637 2 12.753 2 10c0-4.418 3.582-8 8-8z" transform="translate(2)"/>
        <path fill="#000" d="M10 6c-2.21 0-4 1.79-4 4s1.79 4 4 4 4-1.79 4-4-1.79-4-4-4z" transform="translate(2)"/>
    </g>
</svg>
