<svg xmlns="http://www.w3.org/2000/svg" width="24" height="24" viewBox="0 0 24 24">
    <path fill="#FFF" fill-rule="evenodd" d="M8.125 2.5h.034l.06.004-.094-.004c.054 0 .107.004.159.013.017.002.034.006.051.01.083.017.161.045.235.081l.002.002 1.688.843c.494.247.694.848.447 1.342-.23.459-.764.664-1.234.493l-.108-.046-.24-.12v12.388l4.75 2.375v-4.006c0-.552.448-1 1-1 .513 0 .936.386.993.883l.007.117v4.005l4.75-2.374v-1.631c0-.513.386-.936.883-.993l.117-.007c.513 0 .936.386.993.883l.007.117v2.25c0 .337-.17.648-.445.832l-.108.062-6.75 3.375c-.076.038-.154.066-.236.084l-.053.01-.064.008-.06.003-.034.001h-.033l-.06-.004.093.004c-.054 0-.107-.004-.159-.013-.017-.002-.034-.006-.051-.01-.083-.017-.161-.045-.235-.081l-.002-.002-6.303-3.151-6.303 3.151c-.63.315-1.365-.102-1.44-.779L.374 21.5V6.875c0-.337.17-.648.445-.832l.108-.062 6.75-3.375c.076-.038.154-.066.236-.084l.053-.01.064-.008c.02-.002.041-.003.061-.003l.033-.001zm-1 2.617l-4.75 2.376v12.388l4.75-2.375V5.117zm14.635-3.53c1.972 1.634 2.547 4.404 1.417 6.679l-.114.218-.056.09-3.938 5.624-.061.08-.105.105-.096.073-.103.06-.1.044c-.038.015-.076.027-.115.036l-.124.022-.118.007-.119-.008-.117-.02c-.039-.01-.077-.022-.115-.037l-.112-.05-.107-.066-.08-.061-.105-.105-.061-.08-3.938-5.625-.056-.089c-1.28-2.313-.732-5.21 1.303-6.897 2.036-1.687 4.984-1.687 7.02 0zm-5.743 1.54c-1.244 1.03-1.615 2.77-.922 4.21l.074.144 3.081 4.399 3.08-4.399.075-.143c.664-1.38.351-3.036-.77-4.079l-.152-.132c-1.295-1.074-3.171-1.074-4.466 0zM18.25 4.75c.513 0 .936.386.993.883l.007.128c0 .553-.448 1-1 1-.513 0-.936-.386-.993-.883l-.007-.128c0-.552.448-1 1-1z"/>
</svg>
